<svg width="103" height="44" viewBox="0 0 103 44" fill="none" xmlns="http://www.w3.org/2000/svg">
<g clip-path="url(#clip0_139_5)">
<path d="M13.6875 33.4102C13.6875 33.7747 13.5573 34.0742 13.2969 34.3086C13.0495 34.569 12.7435 34.6992 12.3789 34.6992H7.35938V35.9297H12.3008C12.6654 35.9297 12.9714 36.0534 13.2188 36.3008C13.4792 36.5482 13.6094 36.8607 13.6094 37.2383C13.6094 37.6029 13.4792 37.9023 13.2188 38.1367C12.9714 38.3841 12.6654 38.5078 12.3008 38.5078H7.35938V38.9961C7.35938 39.3216 7.49609 39.6341 7.76953 39.9336C8.04297 40.2201 8.42057 40.3633 8.90234 40.3633H12.2617C12.6263 40.3763 12.9258 40.513 13.1602 40.7734C13.4076 41.0339 13.5312 41.3398 13.5312 41.6914C13.5182 42.043 13.388 42.3424 13.1406 42.5898C12.9062 42.8242 12.6133 42.9479 12.2617 42.9609H8.62891C7.66536 42.974 6.76693 42.6094 5.93359 41.8672C5.11328 41.125 4.70312 40.2266 4.70312 39.1719V38.5078H1.48047C1.11589 38.5078 0.803385 38.3906 0.542969 38.1562C0.295573 37.9089 0.171875 37.6029 0.171875 37.2383C0.171875 36.8607 0.295573 36.5482 0.542969 36.3008C0.803385 36.0534 1.11589 35.9297 1.48047 35.9297H4.70312V34.6992H1.55859C1.19401 34.6992 0.88151 34.5755 0.621094 34.3281C0.373698 34.0807 0.25 33.7747 0.25 33.4102C0.25 33.0456 0.373698 32.7331 0.621094 32.4727C0.88151 32.2383 1.19401 32.1211 1.55859 32.1211H4.70312C4.70312 31.7435 4.83984 31.4375 5.11328 31.2031C5.38672 30.9557 5.70573 30.832 6.07031 30.832C6.42188 30.8451 6.72135 30.9753 6.96875 31.2227C7.22917 31.457 7.35938 31.7565 7.35938 32.1211H12.3789C12.7435 32.1211 13.0495 32.2448 13.2969 32.4922C13.5573 32.7396 13.6875 33.0456 13.6875 33.4102ZM19.675 31.1055C20.0005 31.2357 20.2414 31.457 20.3977 31.7695C20.5539 32.082 20.5799 32.401 20.4758 32.7266L19.7531 34.7773C19.9615 34.6862 20.1438 34.6406 20.3 34.6406H21.0617C21.8169 34.6406 22.468 34.8685 23.0148 35.3242C23.5617 35.7669 23.8417 36.4049 23.8547 37.2383L23.8352 38.625C23.757 39.3542 23.8677 39.8294 24.1672 40.0508C24.4536 40.2721 24.8443 40.3958 25.3391 40.4219H26.9406C27.3052 40.4349 27.6047 40.5716 27.8391 40.832C28.0865 41.0794 28.2102 41.3789 28.2102 41.7305C28.1971 42.069 28.0669 42.3555 27.8195 42.5898C27.5852 42.8242 27.2922 42.9479 26.9406 42.9609H24.675C23.5943 42.9089 22.7479 42.5443 22.1359 41.8672C21.524 41.1771 21.218 40.2786 21.218 39.1719V38.1953C21.218 37.5833 20.9185 37.2708 20.3195 37.2578H19.9484C19.3104 37.2708 18.744 37.8893 18.2492 39.1133L17.0578 42.5117C16.7193 43.2148 16.1724 43.4688 15.4172 43.2734C15.0656 43.1562 14.8052 42.9414 14.6359 42.6289C14.4667 42.3034 14.4406 41.9714 14.5578 41.6328L17.9758 31.8672C18.106 31.5286 18.3339 31.2878 18.6594 31.1445C18.9849 31.0013 19.3234 30.9883 19.675 31.1055ZM32.8109 30.7539C33.1625 30.832 33.4359 31.0143 33.6313 31.3008C33.8396 31.5742 33.9177 31.8802 33.8656 32.2188L33.8461 32.2969H36.5609C36.9255 32.2969 37.238 32.4141 37.4984 32.6484C37.7458 32.9089 37.8695 33.2083 37.8695 33.5469C37.8695 33.8854 37.7458 34.1784 37.4984 34.4258H41.3266C41.6911 34.4258 42.0036 34.543 42.2641 34.7773C42.5115 35.0378 42.6352 35.3372 42.6352 35.6758C42.6352 36.0273 42.5049 36.3268 42.2445 36.5742C41.9971 36.8086 41.6911 36.9258 41.3266 36.9258H37.0688C36.7042 36.9258 36.3982 36.8086 36.1508 36.5742C35.8904 36.3268 35.7602 36.0273 35.7602 35.6758C35.7602 35.3503 35.8773 35.0638 36.1117 34.8164H33.4164L32.1469 42.1211C31.9385 42.8763 31.4438 43.2214 30.6625 43.1562C30.2979 43.0911 30.0049 42.9154 29.7836 42.6289C29.5622 42.3424 29.4841 42.0234 29.5492 41.6719L30.7406 34.8164H29.725C29.3604 34.8164 29.0544 34.6927 28.807 34.4453C28.5466 34.1849 28.4164 33.8854 28.4164 33.5469C28.4164 33.2083 28.5401 32.9154 28.7875 32.668C29.0479 32.4206 29.3604 32.2969 29.725 32.2969H31.1703L31.268 31.7695C31.3461 31.418 31.5349 31.1445 31.8344 30.9492C32.1339 30.7539 32.4594 30.6888 32.8109 30.7539ZM33.7289 40.207C33.6768 40.0638 33.6508 39.9076 33.6508 39.7383C33.6508 39.3867 33.7745 39.0872 34.0219 38.8398C34.2823 38.5794 34.5883 38.4492 34.9398 38.4492C35.3044 38.4492 35.5583 38.5404 35.7016 38.7227C35.8448 38.8919 35.9945 39.1068 36.1508 39.3672C36.3461 39.6536 36.626 39.8945 36.9906 40.0898C37.3552 40.2852 37.7849 40.3958 38.2797 40.4219H41.5219C41.8865 40.4349 42.1859 40.5716 42.4203 40.832C42.6677 41.0794 42.7914 41.3789 42.7914 41.7305C42.7784 42.069 42.6482 42.3555 42.4008 42.5898C42.1664 42.8242 41.8734 42.9479 41.5219 42.9609H37.6156C36.6911 42.9089 35.9164 42.6224 35.2914 42.1016C34.6664 41.5807 34.2497 41.125 34.0414 40.7344L33.7289 40.207ZM50.1852 30.9102C50.8622 30.9102 51.5263 30.9883 52.1773 31.1445C52.8414 31.3008 53.4729 31.5352 54.0719 31.8477C54.6708 32.1471 55.2112 32.5508 55.693 33.0586C56.1747 33.5664 56.4156 34.1719 56.4156 34.875V39.1719C56.4156 40.3568 56.1682 41.4896 55.6734 42.5703C55.2958 43.2474 54.7294 43.4622 53.9742 43.2148C53.6487 43.0586 53.4078 42.8177 53.2516 42.4922C53.1083 42.1667 53.1083 41.8411 53.2516 41.5156C53.5901 40.7604 53.7659 39.9792 53.7789 39.1719V35.4805C53.7529 35.0768 53.5966 34.7448 53.3102 34.4844C53.0367 34.2109 52.7307 33.9961 52.3922 33.8398C52.0927 33.7096 51.7932 33.6055 51.4938 33.5273V39.2109C51.4938 40.1224 51.2854 40.8776 50.8688 41.4766C50.4521 42.0625 49.9703 42.4857 49.4234 42.7461C48.8896 42.9935 48.3297 43.1172 47.7438 43.1172C47.1969 43.1172 46.65 42.987 46.1031 42.7266C45.5693 42.4661 45.0875 42.043 44.6578 41.457C44.2281 40.8711 44.0133 40.1224 44.0133 39.2109V39.0938V34.875C44.0133 34.1719 44.2411 33.5664 44.6969 33.0586C45.1656 32.5508 45.6995 32.1471 46.2984 31.8477C46.8974 31.5352 47.5224 31.3008 48.1734 31.1445C48.8375 30.9883 49.5081 30.9102 50.1852 30.9102ZM46.5914 39.3281C46.5914 39.5755 46.6565 39.7839 46.7867 39.9531C46.9299 40.1094 47.0797 40.2266 47.2359 40.3047C47.3922 40.3828 47.5549 40.4219 47.7242 40.4219C47.8805 40.4219 48.0432 40.3828 48.2125 40.3047C48.3948 40.2266 48.5445 40.1094 48.6617 39.9531C48.7919 39.7839 48.8635 39.5755 48.8766 39.3281V33.5273C48.5771 33.6055 48.2841 33.7096 47.9977 33.8398C47.6461 33.9961 47.3206 34.2109 47.0211 34.4844C46.7346 34.7448 46.5914 35.0768 46.5914 35.4805V39.3281Z" fill="white"/>
<path d="M80.5 26.73C80.02 26.73 79.66 26.58 79.42 26.28C79.18 25.95 79.06 25.635 79.06 25.335V13.95C77.2 14.97 75.58 15.87 74.2 16.65C72.85 17.43 71.59 18.225 70.42 19.035C69.28 19.815 68.065 20.76 66.775 21.87C66.565 22.08 66.295 22.185 65.965 22.185C65.485 22.185 65.08 22.02 64.75 21.69C64.54 21.48 64.435 21.195 64.435 20.835C64.435 20.385 64.6 19.995 64.93 19.665C65.59 19.005 66.46 18.255 67.54 17.415C68.65 16.575 69.865 15.735 71.185 14.895C72.535 14.025 73.885 13.215 75.235 12.465C76.615 11.715 77.89 11.1 79.06 10.62V9.54H66.595C66.175 9.54 65.83 9.405 65.56 9.135C65.29 8.835 65.155 8.475 65.155 8.055C65.155 7.665 65.29 7.335 65.56 7.065C65.83 6.795 66.175 6.66 66.595 6.66H79.06V2.25C79.06 1.83 79.195 1.485 79.465 1.215C79.735 0.944997 80.08 0.809997 80.5 0.809997C80.89 0.809997 81.22 0.944997 81.49 1.215C81.76 1.485 81.895 1.83 81.895 2.25V6.66H94.405C94.885 6.66 95.23 6.81 95.44 7.11C95.68 7.41 95.8 7.725 95.8 8.055C95.8 8.505 95.665 8.865 95.395 9.135C95.155 9.405 94.825 9.54 94.405 9.54H81.895V11.97C83.485 12.27 85.45 13.035 87.79 14.265C90.16 15.495 93.19 17.07 96.88 18.99C97.09 19.11 97.255 19.305 97.375 19.575C97.495 19.815 97.555 20.055 97.555 20.295C97.555 20.565 97.495 20.805 97.375 21.015C97.255 21.225 97.06 21.39 96.79 21.51C96.55 21.6 96.31 21.645 96.07 21.645C95.77 21.645 95.56 21.585 95.44 21.465C92.74 19.935 90.235 18.615 87.925 17.505C85.615 16.365 83.605 15.51 81.895 14.94V25.335C81.895 25.815 81.745 26.175 81.445 26.415C81.145 26.625 80.83 26.73 80.5 26.73ZM91.03 43.74C90.64 43.74 90.31 43.59 90.04 43.29C89.8 43.02 89.68 42.675 89.68 42.255V35.145C88.93 35.625 88.09 36.18 87.16 36.81C86.26 37.44 85.435 38.025 84.685 38.565C83.965 39.135 83.485 39.54 83.245 39.78C83.035 39.9 82.84 40.005 82.66 40.095C82.51 40.185 82.36 40.23 82.21 40.23C81.94 40.23 81.61 40.035 81.22 39.645C80.95 39.375 80.815 39.06 80.815 38.7C80.815 38.31 80.98 37.95 81.31 37.62C81.73 37.29 82.33 36.84 83.11 36.27C83.89 35.7 84.715 35.115 85.585 34.515C86.455 33.885 87.265 33.315 88.015 32.805C88.765 32.295 89.32 31.935 89.68 31.725V31.05H82.39C82 31.05 81.655 30.915 81.355 30.645C81.085 30.375 80.95 30.045 80.95 29.655C80.95 29.145 81.1 28.77 81.4 28.53C81.7 28.29 82.03 28.17 82.39 28.17H89.68V24.255C89.68 23.775 89.83 23.43 90.13 23.22C90.46 22.98 90.775 22.86 91.075 22.86C91.495 22.86 91.84 22.995 92.11 23.265C92.38 23.505 92.515 23.835 92.515 24.255V28.17H99.535C99.955 28.17 100.3 28.29 100.57 28.53C100.84 28.77 100.975 29.145 100.975 29.655C100.975 30.105 100.81 30.45 100.48 30.69C100.18 30.93 99.865 31.05 99.535 31.05H92.56V32.31C93.91 32.97 95.005 33.54 95.845 34.02C96.685 34.47 97.39 34.875 97.96 35.235C98.56 35.565 99.1 35.91 99.58 36.27C100.09 36.63 100.66 37.035 101.29 37.485C101.74 37.875 101.965 38.28 101.965 38.7C101.965 38.97 101.875 39.24 101.695 39.51C101.425 39.93 101.05 40.14 100.57 40.14C100.3 40.14 100.015 40.065 99.715 39.915C99.115 39.375 98.335 38.82 97.375 38.25C96.445 37.68 95.53 37.14 94.63 36.63C93.73 36.12 93.025 35.73 92.515 35.46V42.255C92.515 42.675 92.38 43.02 92.11 43.29C91.84 43.59 91.48 43.74 91.03 43.74ZM70.015 43.74C69.595 43.74 69.25 43.605 68.98 43.335C68.71 43.065 68.575 42.72 68.575 42.3V35.19C67.435 35.82 66.52 36.375 65.83 36.855C65.14 37.365 64.525 37.845 63.985 38.295C63.445 38.775 62.83 39.285 62.14 39.825C61.84 40.065 61.51 40.185 61.15 40.185C60.73 40.185 60.385 40.035 60.115 39.735C59.845 39.405 59.71 39.09 59.71 38.79C59.71 38.43 59.89 38.07 60.25 37.71C61.21 36.66 62.38 35.67 63.76 34.74C65.14 33.81 66.745 32.82 68.575 31.77V31.095H61.24C60.76 31.095 60.4 30.945 60.16 30.645C59.92 30.345 59.8 30.03 59.8 29.7C59.8 29.28 59.935 28.935 60.205 28.665C60.475 28.365 60.82 28.215 61.24 28.215H68.575V24.3C68.575 23.82 68.74 23.475 69.07 23.265C69.4 23.025 69.715 22.905 70.015 22.905C70.435 22.905 70.78 23.04 71.05 23.31C71.32 23.55 71.455 23.88 71.455 24.3V28.215H78.385C78.865 28.215 79.225 28.38 79.465 28.71C79.705 29.01 79.825 29.34 79.825 29.7C79.825 30.09 79.69 30.42 79.42 30.69C79.15 30.96 78.805 31.095 78.385 31.095H71.455V32.4C72.745 33.03 73.825 33.615 74.695 34.155C75.595 34.665 76.42 35.19 77.17 35.73C77.92 36.24 78.745 36.825 79.645 37.485C80.065 37.725 80.275 38.115 80.275 38.655C80.275 38.985 80.185 39.27 80.005 39.51C79.705 39.93 79.315 40.14 78.835 40.14C78.535 40.14 78.265 40.05 78.025 39.87C76.825 38.91 75.64 38.07 74.47 37.35C73.33 36.66 72.325 36.06 71.455 35.55V42.3C71.455 42.78 71.29 43.14 70.96 43.38C70.66 43.62 70.345 43.74 70.015 43.74Z" fill="white"/>
</g>
<defs>
<clipPath id="clip0_139_5">
<rect width="103" height="44" fill="white"/>
</clipPath>
</defs>
</svg>
